<svg viewBox="0 0 18 18" fill="none" xmlns="http://www.w3.org/2000/svg">
    <path fill-rule="evenodd" clip-rule="evenodd" d="M1.22178 16.7782C0.831183 16.3876 0.831183 15.7545 1.22178 15.3639L15.3639 1.2218C15.7544 0.8313 16.3876 0.8313 16.7781 1.2218C17.1686 1.6123 17.1686 2.2455 16.7781 2.636L2.63598 16.7782C2.24538 17.1687 1.61228 17.1687 1.22178 16.7782Z" fill="#333333"/>
    <path fill-rule="evenodd" clip-rule="evenodd" d="M1.22183 1.2218C1.61243 0.8313 2.24553 0.8313 2.63613 1.2218L16.7782 15.364C17.1687 15.7545 17.1687 16.3876 16.7782 16.7782C16.3877 17.1687 15.7545 17.1687 15.364 16.7782L1.22183 2.636C0.83133 2.2455 0.83133 1.6123 1.22183 1.2218Z" fill="#333333"/>
</svg>
